<svg version="1" xmlns="http://www.w3.org/2000/svg" width="832" height="832" viewBox="0 0 624.000000 624.000000"><path d="M52.6 78.6C51.2 80 51 85.4 51 123.1V166H0v293h51v42.9c0 37.7.2 43.1 1.6 44.5 1.4 1.4 7.9 1.6 56.5 1.6H164V77h-54.9c-48.6 0-55.1.2-56.5 1.6zM461 312.5V548h54.4c48.2 0 54.6-.2 56-1.6 1.4-1.4 1.6-6.8 1.6-44.5V459h51V166h-51v-42.9c0-37.7-.2-43.1-1.6-44.5-1.4-1.4-7.8-1.6-56-1.6H461v235.5zM287.6 155.8c-.2.4-3.4 9.1-7.1 19.2-3.6 10.2-9.5 26.6-13 36.5-5.8 16.1-17.3 48.6-33.2 93.5-10.7 30.3-19.5 55.5-20 57.2-.5 1.7 1 1.8 22.5 1.8h23l6.9-21.3 6.9-21.2h66.9v50c0 44.4-.2 50.6-1.7 55.5-1.8 5.9-6.3 11.1-11.1 12.9-7.6 2.9-19.7-.1-23.9-5.9-3.4-4.7-5.8-17.6-6.5-33.8l-.6-15.2h-40l.6 14.7c2.1 48.4 14.9 72.3 42.8 79.9 9.2 2.5 32.2 2.6 40.3.1 25.6-7.9 38.1-26 41.5-60.2.7-6.5 1.1-34.8 1.1-71.3 0-58.6-.1-60.7-2.1-67.6-2.5-8.5-7.8-23.8-23.9-69.6-6.7-19-13.8-39.3-15.8-45.3l-3.6-10.7h-24.8c-13.6 0-24.9.4-25.2.8zm27 57c5.7 18.2 21.7 68.9 22.1 69.9.4 1-5 1.3-25.2 1.3-20.1 0-25.6-.3-25.2-1.3.2-.6 6-18.2 12.8-38.9C305.9 223 311.7 206 312 206c.3 0 1.4 3.1 2.6 6.8z"/></svg>